<?xml version="1.0" encoding="UTF-8"?>
<svg id="Layer_2" xmlns="http://www.w3.org/2000/svg" viewBox="0 0 116.4 63.13">
  <defs>
    <style>
      .cls-1 {
        fill: #231f20;
      }
    </style>
  </defs>
  <g id="Layer_1-2" data-name="Layer_1">
    <g id="Laag_1-2">
      <g>
        <path class="cls-1" d="M62.11,37.76c2.28-2.86,4.55-5.73,6.83-8.59l-1.6-.41c.77,5.75.75,11.58-.09,17.33-.37,2.55-.85,5.11-1.72,7.54-.82,2.29-2,4.63-3.85,6.27-.95.85-2.2,1.59-3.53,1.44-1.06-.12-2.16-.8-2.36-1.91l-1.42.85c2.05,1.8,4.92,2.41,7.58,2.01,2.81-.43,5.3-2,7.25-4.02,2.12-2.19,3.59-4.9,4.81-7.67.32-.72.62-1.43.91-2.16.27-.66.46-1.45.85-2.05.33-.51,1.13-.45,1.66-.47.75-.03,1.48-.11,2.21-.28,3.09-.7,5.87-2.51,7.7-5.1l-1.6-.65c-.57,2.63-1.14,5.27-1.37,7.95-.11,1.29-.14,2.61-.06,3.9.07,1.18.19,2.41.61,3.52.36.93,1.03,1.76,2.01,2.06,1.16.34,2.33-.17,3.2-.94s1.59-1.85,2.24-2.87,1.24-2.09,1.77-3.17c1.25-2.51,2.23-5.14,3.2-7.76l-1.72-.45c-.04,2.23-.03,4.45.03,6.67.05,1.76-.2,4.15,1.12,5.54.31.33.88.5,1.26.14,2.06-1.93,3.29-4.44,4.75-6.81,1.32-2.13,3.01-4.41,5.59-5.02,1.11-.26,2.35-.23,3.34.37s1.73,1.71,2.2,2.78c.82,1.87,1.01,4.13.15,6.01-.47,1.04-1.38,2.02-2.51,2.33-.54.15-1.21.14-1.63-.28-.25-.25-.52-.76-.32-1.12.24-.43.24-.93-.18-1.25-.35-.26-1.01-.24-1.25.18-.73,1.28-.37,2.82.8,3.72,1.33,1.03,3.19.66,4.5-.2,2.33-1.53,3.16-4.46,2.89-7.11s-1.86-6.05-4.65-7.03c-3.12-1.09-6.3.53-8.37,2.83-2.51,2.79-3.65,6.62-6.41,9.21l1.26.14c-.53-.57-.59-1.3-.64-2.05-.06-.96-.09-1.91-.12-2.87-.06-1.98-.06-3.97-.02-5.96.02-.95-1.33-1.47-1.72-.45-1.51,4.05-3.03,8.18-5.56,11.73-.52.74-1.16,1.66-2.07,1.95-.83.26-1.28-.43-1.53-1.11-.35-.96-.4-2.07-.46-3.09-.06-1.14-.02-2.28.08-3.42.23-2.65.79-5.25,1.36-7.84.19-.89-1.11-1.35-1.6-.65-1.5,2.12-3.73,3.69-6.25,4.33-.63.16-1.28.27-1.93.31-.71.05-1.41.03-2.1.25-1.43.46-1.79,1.95-2.3,3.2-2.03,4.99-4.66,10.7-10.16,12.59-2.59.9-5.65.52-7.74-1.31-.59-.51-1.55.11-1.42.85.49,2.72,3.5,3.96,5.97,3.23,2.74-.81,4.66-3.35,5.95-5.76s2.07-5.25,2.6-8c.61-3.16.98-6.37,1.09-9.58.14-3.7-.04-7.4-.53-11.06-.1-.79-1.13-1.01-1.6-.41-2.28,2.86-4.55,5.73-6.83,8.59-.72.9.72,1.98,1.43,1.07h0v-.02Z"/>
        <path class="cls-1" d="M4.63,5.47c4.44-1.06,8.82-2.32,13.14-3.77l-1.18-.46c.66,2.04,1.45,4.03,2.39,5.96.94,1.93,2.03,3.72,3.1,5.54,1.99,3.37,4.02,7.23,3.3,11.28-.57,3.2-3.1,5.53-5.97,6.81-2.87,1.27-6.2,1.61-9.32,1.01-3.36-.64-6.65-2.46-8.34-5.53-.55-1-2.2-.3-1.64.72,3.51,6.38,11.95,8.15,18.5,6.02,3.29-1.07,6.37-3.25,7.83-6.46,1.81-3.96.54-8.48-1.37-12.15-1.18-2.26-2.61-4.39-3.8-6.65s-2.24-4.76-3.05-7.27c-.16-.49-.76-.61-1.18-.46-4.17,1.4-8.4,2.61-12.69,3.63-1.11.26-.87,2.04.25,1.77h.01Z"/>
        <path class="cls-1" d="M28.63,18.16c.93,2.56,1.86,5.12,2.79,7.68.15.41.66.61,1.06.49.44-.13.68-.53.65-.98-.08-.94-.17-1.88-.25-2.82-.07-.77-.2-1.6.03-2.35.38-1.3,1.67-2.13,2.73-2.85.4-.27.43-.9.14-1.26-.32-.4-.86-.42-1.26-.14-1.33.91-2.76,1.98-3.28,3.58-.3.94-.26,1.9-.17,2.88.1,1.08.19,2.15.29,3.23l1.71-.49c-.93-2.56-1.86-5.12-2.79-7.68-.17-.45-.75-.65-1.18-.46-.47.2-.63.72-.46,1.18h0Z"/>
        <path class="cls-1" d="M40.45,18.09c.5,2.17,1,4.33,1.49,6.5.11.47.51.83,1.02.76.45-.06.87-.54.76-1.02l-1.49-6.5c-.11-.47-.51-.83-1.02-.76-.45.06-.87.54-.76,1.02h0Z"/>
        <path class="cls-1" d="M39.61,13.9c1.14-.16.89-1.94-.25-1.77s-.89,1.94.25,1.77h0Z"/>
        <path class="cls-1" d="M50.28,8.63c-2.12.16-4.32,1.23-5.58,2.98-1.26,1.75-.61,4.05,1.14,5.22,1.91,1.27,4.24.89,6.4,1.06.97.07,1.99.27,2.73.95.63.58.96,1.45.49,2.23-.59.98-1.79,1.31-2.84,1.5-1.41.25-2.84.44-4.25.65-1.14.17-.89,1.95.25,1.77,1.24-.19,2.48-.37,3.72-.57,1.15-.18,2.32-.43,3.31-1.08,1.78-1.15,2.38-3.36,1.14-5.15-1.24-1.79-3.64-2.13-5.73-2.14-1.74-.01-4.54.11-5.21-1.98-.33-1.04.6-1.9,1.35-2.47.97-.73,2.12-1.13,3.32-1.22s.89-1.86-.25-1.77h0Z"/>
        <path class="cls-1" d="M54.47,48.04c-3.3-1.21-6.72-2.46-9.39-4.82-1.28-1.13-2.49-2.62-2.8-4.34-.23-1.26.24-3.57,2-3.14,1.76.43,1.94,2.5,1.47,3.94-.61,1.85-2,3.31-2.96,4.97s-1.63,3.5-1.41,5.42c.19,1.6,1.36,3.25,3.16,2.92,1.89-.35,3.41-2.28,4.31-3.85.97-1.7,1.56-3.57,2.11-5.45.14-.47-.01-.97-.49-1.17-.41-.17-1.03.03-1.17.49-.5,1.71-1.02,3.44-1.87,5.01-.39.71-.86,1.4-1.42,1.98-.43.44-1.41,1.44-2.11,1.2-.6-.2-.74-1.16-.76-1.69-.04-.95.21-1.89.58-2.76.8-1.89,2.23-3.41,3.18-5.21.86-1.65,1.3-3.81.38-5.53-.8-1.48-2.59-2.47-4.27-1.99-1.92.55-2.7,2.73-2.56,4.55s1.2,3.65,2.46,5.01c2.92,3.11,6.97,4.67,10.89,6.11,1.08.39,1.76-1.26.67-1.66h0Z"/>
        <path class="cls-1" d="M97.65,38.99c1.98-.28,1.54-3.36-.44-3.07s-1.54,3.36.44,3.07h0Z"/>
      </g>
    </g>
  </g>
</svg>