<?xml version="1.0" encoding="UTF-8"?>
<svg id="Layer_2" xmlns="http://www.w3.org/2000/svg" viewBox="0 0 141.6 131.63">
  <defs>
    <style>
      .cls-1 {
        fill: #f04e30;
      }
    </style>
  </defs>
  <g id="Layer_1-2" data-name="Layer_1">
    <path id="Path_47" class="cls-1" d="M119.81,73.08c-.08-.12-.15-.23-.23-.35l-1.01.93.22.24c.34-.27.68-.55,1.01-.82M65.85,51.11q1.29-.31.9-1.54c-.28.48-.49.85-.9,1.54M79.59,62.36l-.41,1.88c1.32-.28,1.32-.86.41-1.88M12.38,28.96c-.03,1.06-.05,1.86-.08,2.65.15.04.29.08.44.12.41-.62.81-1.24,1.31-2-.61-.28-1-.46-1.67-.77M53.08,23.58c-.95.9-1.65,1.57-2.35,2.24.06.11.11.22.17.33,1.12-.25,2.24-.5,3.57-.79-.54-.69-.92-1.17-1.39-1.77M64.38,41.42c-.65-1.43-1.2-2.63-1.75-3.84-1.06,1.6-1.97,2.99-3,4.53.87-.2,1.55-.39,2.24-.49.75-.11,1.52-.13,2.5-.2M122.48,54.82c1.7.88,3.22-.46,5.17-.34-1.25-1.8-2.17-3.4-3.85-4.22-.43,1.48-.82,2.83-1.32,4.56M113.04,78.06c-.08-.15-.16-.31-.24-.46-1.24.07-2.48.12-3.71.21-.24.03-.46.14-.63.3-2.04,1.82-4.07,3.65-6.09,5.49.08.11.17.22.25.33,3.47-1.96,6.95-3.91,10.42-5.87M46.7,103.96c-.62-.34-.96-.53-1.3-.73-1.96-1.11-2.86-2.66-2.21-4.97.39-1.41.65-2.86,1.02-4.57l-5.83,2.44c1.72,4.08,3.37,7.99,5.13,12.16,1.15-1.57,2.09-2.84,3.19-4.34M46.73,16.53c-3.21-3.71-9.59-5.86-14.85-5.2-.1.84.05,1.43,1.11,1.35.88-.07,1.77-.17,2.64-.09,2.36.24,3.76,2.3,3.19,4.64-.28,1.15-.61,2.29-.98,3.67,3-1.47,5.85-2.87,8.91-4.37M63.87,106.38l.28.46c5.67-3.74,11.34-7.49,16.87-11.14-1.04-1.1-2.05-2.17-3.2-3.39-4.59,4.63-9.27,9.35-13.95,14.07M32.87,85.61c2.01-2.51,3.82-4.79,5.67-7.11-1.21-.66-2.42-1.04-3.22-1.84-.86-.85-1.33-2.1-1.97-3.16-2.86,1.19-4.71,1.34-8,.55,2.59,3.98,5.02,7.71,7.52,11.56M116.59,45.79c-.37-.17-1.21-.59-2.07-.98-3.63-1.62-7.37-2.12-11.24-1-4,1.16-8.02,2.25-11.96,3.59-2.2.76-4.3,1.76-6.28,2.98-1.23.76-2.25,1.81-2.96,3.07-1.03,1.88-1.66,3.99-2.44,6.01-.02.05.19.19.3.28,2-2.3,1.93-2.33,2.68-4.36.36-.96.95-1.85,1.55-2.69,2.28-3.19,5.83-4.05,9.3-5,1.46-.4,2.86-.28,3.91,1.07.23.29.62.45,1.02.73,1.25-.97,2.54-1.8,3.63-2.85,1.52-1.47,3.28-1.85,5.28-1.75,2.09.11,3.16.89,3.78,2.95.17.57.39,1.13.57,1.64,1.76-1.32,3.35-2.51,4.91-3.68M13.21,39.04c1.12,6.11,8.03,26.7,9.82,29.18,1.58-4.25,4.62-7.37,7.8-10.74-2.45-.93-4.38-2.26-5.17-4.81-.96,0-1.83,0-2.7-.02-2.38-.05-4.36-.97-5.82-2.88-1.04-1.36-1.47-2.84-.74-4.52.63-1.46,1.22-2.93,1.8-4.33-1.55-.59-3.17-1.2-5-1.89M76.63,41.3c6.64-4.53,13.93-6.75,21.31-8.69,2.25-.59,4.58-.88,6.8-1.56,3.9-1.2,7.64-.46,11.34.68,6.49,2.01,12.42,5.15,17.83,9.25,3.28,2.49,4.85,6.14,6.22,9.85,1.88,5.08,1.86,10.35.45,15.47-1.35,4.9-4.42,8.92-8.04,12.44-5.11,4.97-10.91,9.03-17.11,12.48-7.3,4.07-14.82,7.77-21.94,12.14-9.66,5.93-19.05,12.3-28.5,18.56-3.95,2.62-7.69,5.57-11.7,8.09-2.01,1.26-4.39,1.93-6.91,1.47-1.45-.26-2.1-1.44-2.83-2.43-.72-.97-1.33-1.99-.6-3.5.64-1.33.57-3,.84-4.64-1.67-.24-3.41-1.09-5.52-.47-1.51.45-3.03-.29-4.29-1.54-2.18-2.16-3.34-4.82-4.47-7.59-2.8-6.85-5.38-13.8-9.8-19.85-5.65-7.73-9.73-16.27-12.42-25.48-2.12-7.26-4.56-14.46-6.22-21.83C-2.12,29.9,1.91,17.51,11.9,7.05,16.12,2.63,21.37.35,27.56.07c6.41-.29,12.63.26,18.65,2.62,3.59,1.4,6.59,3.62,9.09,6.53,5.07,5.91,10.33,11.71,14.24,18.51,2.36,4.1,4.4,8.39,6.59,12.59.14.27.28.55.51.99"/>
  </g>
</svg>