<svg width="1437" height="2093" viewBox="0 0 1437 2093" fill="none" xmlns="http://www.w3.org/2000/svg">
<path d="M29.9035 30.1555C29.1959 171.638 119.769 301.273 235.263 382.999C350.756 464.695 489.17 506.358 625.522 544.144C761.875 581.93 900.996 617.962 1022.37 690.641C1143.74 763.321 1247.2 879.848 1267.87 1019.82C1288.55 1159.8 1204.56 1318.11 1066.45 1348.79C968.434 1370.54 866.877 1327.59 785.072 1269.34C703.267 1211.09 633.183 1137.06 548.424 1083.24C463.635 1029.42 355.863 997.36 262.521 1034.41C152.75 1077.98 95.7108 1210.66 115.462 1327.13C135.214 1443.59 217.88 1541.75 316.268 1607.11C540.333 1755.88 818.237 1755.73 1067.84 1833.98C1207.63 1877.79 1331.05 1954.06 1437 2051.04" stroke="#0092D7" stroke-width="59" stroke-miterlimit="10" stroke-linecap="square"/>
</svg>
