<svg width="610" height="957" viewBox="0 0 610 957" fill="none" xmlns="http://www.w3.org/2000/svg">
<path d="M27.7037 23.9888C12.6637 3.44884 5.9138 -20.8712 1.2738 -45.5112L1.31372 -45.5412C-0.52628 -55.3112 3.93372 -64.1612 13.6837 -67.3212C22.2537 -70.0912 33.7437 -64.0712 35.4637 -54.9512C37.4537 -44.4212 39.5338 -33.9012 42.8638 -23.7012C43.7655 -20.9476 44.7893 -18.2599 45.8169 -15.556C45.9809 -15.1844 46.1443 -14.8128 46.3137 -14.4412C46.9437 -13.0712 47.5938 -11.7012 48.2738 -10.3512C51.2612 -4.42575 54.7734 1.17887 58.6763 6.54898C59.1675 7.1302 59.6295 7.74075 60.1138 8.32884C61.2738 9.71884 62.4637 11.0889 63.6737 12.4288C66.3437 15.3788 69.1537 18.1988 72.0837 20.9088C73.8337 22.5188 75.6137 24.0888 77.4337 25.6188C78.2177 26.277 79.0017 26.9257 79.7947 27.5651C80.4938 27.862 80.9542 28.158 81.1658 28.3418C82.6877 29.3706 84.1948 30.8576 85.5537 31.8088C87.4737 33.1488 89.4138 34.4588 91.3838 35.7288C100.604 41.6988 110.294 46.9088 120.234 51.5688C123.144 52.9389 126.084 54.2488 129.034 55.5288C129.272 55.6328 129.464 55.7167 129.616 55.7836C129.794 55.8534 130.078 55.9665 130.504 56.1388L130.509 56.1412C131.978 56.7404 133.446 57.3396 134.924 57.9188C141.454 60.4988 148.064 62.8988 154.724 65.1388C182.634 74.5288 211.914 81.1389 239.804 88.6189C267.694 96.0988 295.394 104.859 321.234 117.909C346.844 130.849 369.784 148.829 388.664 170.429C408.004 192.549 424.144 218.719 430.164 247.809C435.794 274.999 432.524 302.979 419.934 327.829C407.534 352.299 384.674 371.479 357.624 377.309C327.174 383.869 296.874 374.789 270.074 360.349C257.264 353.449 245.184 345.249 233.554 336.519C227.074 331.659 220.694 326.669 214.394 321.569C211.584 319.289 208.784 316.979 205.944 314.719C204.821 313.833 203.706 312.947 202.58 312.067C202.237 311.808 200.533 310.505 200.114 310.189C188.354 301.349 176.074 293.119 163.074 286.219C159.814 284.489 156.514 282.839 153.154 281.299C152.432 280.97 149.234 279.599 150.672 280.178C149.311 279.626 147.941 279.091 146.564 278.579C140.224 276.219 133.724 274.289 127.084 272.989C126.118 272.804 122.696 272.288 123.683 272.376C122.493 272.247 121.298 272.133 120.104 272.049C117.014 271.829 113.904 271.769 110.804 271.889C109.14 271.953 107.502 272.127 105.85 272.256C105.235 272.37 104.616 272.458 104.004 272.579C100.934 273.179 97.9037 273.969 94.9337 274.959C94.0047 275.268 89.92 276.973 92.2125 275.896C90.8163 276.549 89.4216 277.222 88.0537 277.939C85.7737 279.139 83.5538 280.439 81.3938 281.839C80.1938 282.619 79.0537 283.539 77.8337 284.279C77.8253 284.284 77.817 284.289 77.8088 284.294C77.748 284.35 77.6895 284.402 77.6338 284.449C75.7238 286.069 73.8638 287.729 72.1038 289.519C71.1938 290.449 70.3037 291.419 69.4437 292.399C69.1458 292.742 68.1097 294.088 67.8566 294.38C67.7109 294.588 67.5897 294.763 67.5238 294.859C66.9238 295.749 66.3338 296.649 65.7738 297.559C64.6044 299.469 63.53 301.436 62.5598 303.46C62.4185 304.316 61.7505 305.415 61.4738 306.199C60.0555 310.279 59.2505 314.415 58.3807 318.627C58.3637 318.775 58.3476 318.922 58.3337 319.069C58.2237 320.139 58.1437 321.209 58.0837 322.289C57.9637 324.469 57.9137 326.639 57.9437 328.819C57.9837 331.209 58.1037 333.599 58.3037 335.989C58.3914 337.07 58.5455 338.16 58.6274 339.242C59.4035 343.933 60.3765 348.565 61.6238 353.159C62.9738 358.089 64.5837 362.949 66.4137 367.729C66.8937 368.977 67.4107 370.207 67.9025 371.453C67.97 371.578 68.0302 371.693 68.0737 371.789C69.0737 373.989 70.0738 376.169 71.1438 378.329C75.5738 387.299 80.7338 395.909 86.5138 404.069C87.3038 405.199 88.1137 406.309 88.9337 407.419C89.2837 407.889 89.6538 408.349 89.9938 408.829C91.1338 410.439 88.9838 407.529 89.0038 407.569C89.8638 409.469 92.0238 411.369 93.3738 412.969C96.3938 416.549 99.5438 420.019 102.854 423.339C105.994 426.489 109.264 429.509 112.674 432.349C112.906 432.539 113.143 432.725 113.381 432.912C113.988 433.32 115.274 434.397 115.464 434.539C117.254 435.839 119.094 437.069 120.954 438.259C127.214 442.269 133.724 445.909 140.384 449.209C143.844 450.929 147.354 452.539 150.894 454.089C148.614 453.089 152.604 454.789 153.254 455.049C154.914 455.709 156.584 456.359 158.254 456.989C186.954 467.819 217.184 473.759 247.334 478.889C279.054 484.279 311.024 488.869 342.034 497.669C368.224 505.109 393.624 515.789 417.284 529.259C463.384 555.499 502.614 592.109 534.414 634.359C549.874 654.919 563.354 676.969 574.644 700.079C585.974 723.279 595.884 747.669 602.174 772.759C614.654 822.549 612.764 878.679 576.684 918.519C538.014 961.219 475.964 965.169 424.694 945.419C397.634 934.999 374.014 919.489 352.594 900.019C331.114 880.489 312.544 858.079 294.184 835.669C276.034 813.499 258.014 790.969 237.224 771.169C231.934 766.139 226.454 761.259 220.674 756.789C222.864 758.489 218.894 755.519 218.204 755.019C216.844 754.049 215.464 753.089 214.074 752.159C211.294 750.299 208.464 748.529 205.574 746.869C202.454 745.079 199.254 743.469 196.014 741.899C195.424 741.613 195.118 741.456 194.983 741.378C194.8 741.31 194.538 741.21 194.174 741.069C192.634 740.469 191.084 739.889 189.524 739.349C186.124 738.179 182.664 737.199 179.154 736.409C177.664 736.079 176.154 735.859 174.674 735.519C174.647 735.513 174.621 735.507 174.596 735.501C174.369 735.476 174.142 735.452 173.914 735.429C168.104 734.869 162.364 735.089 156.574 735.649C160.254 735.299 156.664 735.699 155.104 736.009C153.744 736.279 152.394 736.589 151.044 736.929C148.364 737.609 145.724 738.439 143.134 739.399C142.941 739.472 142.248 739.764 141.763 739.964C141.727 739.982 141.696 739.997 141.674 740.009C140.464 740.629 139.234 741.209 138.034 741.859C135.596 743.186 133.371 744.761 131.066 746.276C131.066 746.277 131.065 746.278 131.064 746.279C130.634 746.749 130.034 747.149 129.554 747.589C128.564 748.479 127.614 749.409 126.684 750.369C125.754 751.329 124.944 752.409 124.014 753.349C124.197 753.164 124.352 753.005 124.482 752.872C125.06 752.199 125.381 751.945 124.482 752.872C124.206 753.193 123.872 753.609 123.584 754.039C122.704 755.339 121.884 756.679 121.134 758.059C120.974 758.347 120.407 759.468 120.033 760.193C119.803 760.87 118.984 762.954 118.824 763.469C118.344 764.989 117.924 766.529 117.574 768.089C117.385 768.933 117.244 769.777 117.083 770.621C117.022 772.077 116.862 773.533 116.834 774.989C116.804 776.539 116.844 778.099 116.934 779.649C116.995 780.633 117.271 782.815 117.177 782.406C118.303 788.646 120.264 794.507 122.374 800.499C122.401 800.575 122.425 800.644 122.447 800.708C122.471 800.758 122.497 800.812 122.524 800.869C122.884 801.619 123.204 802.399 123.564 803.159C124.274 804.699 125.024 806.219 125.794 807.729C127.354 810.789 129.014 813.809 130.754 816.779C144.284 839.949 159.36 852.92 170.5 877.5H134.38C134.38 877.5 100.5 835.669 92.9437 821.019C85.3875 806.369 75.2838 760.969 93.7238 735.029C109.784 712.439 136.124 700.619 163.474 699.669C193.484 698.639 221.234 712.749 244.344 730.679C289.714 765.889 320.434 816.389 359.814 857.549C369.724 867.899 380.184 877.659 391.324 886.669C391.796 887.05 392.239 887.4 392.407 887.535C392.766 887.803 393.126 888.069 393.484 888.339C394.714 889.259 395.964 890.159 397.214 891.039C399.734 892.819 402.304 894.539 404.914 896.189C410.404 899.669 416.054 902.869 421.864 905.769C424.828 907.256 427.85 908.609 430.873 909.978C431.45 910.208 432.029 910.446 432.614 910.679C434.064 911.259 435.524 911.809 436.994 912.349C443.314 914.659 449.764 916.629 456.304 918.189C459.544 918.959 462.804 919.639 466.084 920.209C467.21 920.404 468.342 920.582 469.475 920.756C468.455 920.596 470.783 920.923 471.924 921.039C478.144 921.669 484.404 921.899 490.654 921.659C493.805 921.541 496.927 921.211 500.067 920.934C497.163 921.19 499.951 920.954 501.364 920.709C502.804 920.459 504.254 920.179 505.684 919.879C508.784 919.219 511.854 918.419 514.884 917.489C516.284 917.059 517.664 916.599 519.044 916.109C519.381 915.991 520.65 915.515 521.473 915.21C521.995 914.987 522.782 914.657 522.954 914.579C523.614 914.279 524.284 913.959 524.944 913.639C526.264 912.989 527.584 912.309 528.874 911.599C531.484 910.169 534.034 908.619 536.504 906.949C537.334 906.379 538.154 905.799 538.974 905.219C539.023 905.185 539.192 905.06 539.39 904.913C539.83 904.536 541.609 903.103 541.994 902.769C544.274 900.819 546.474 898.779 548.574 896.649C550.784 894.399 552.854 892.039 554.884 889.629C555.036 889.449 555.16 889.302 555.262 889.185C555.349 889.058 555.458 888.901 555.594 888.709C556.404 887.559 557.224 886.409 558.004 885.239C561.131 880.523 563.689 875.56 566.103 870.462C566.331 869.821 566.597 869.2 566.834 868.569C567.314 867.289 567.774 865.989 568.204 864.689C569.064 862.079 569.834 859.439 570.514 856.779C571.254 853.879 571.884 850.959 572.404 848.019C572.6 846.908 572.769 845.79 572.945 844.671C573.001 844.147 573.071 843.628 573.124 843.109C574.354 831.389 574.124 819.549 572.854 807.839C572.694 806.389 572.144 802.499 572.694 806.149C572.484 804.729 572.284 803.309 572.054 801.889C571.594 799.049 571.084 796.219 570.514 793.399C569.334 787.529 567.924 781.699 566.324 775.929C563.024 764.039 558.874 752.369 554.294 740.919C553.701 739.46 553.101 738.009 552.507 736.552C553.234 738.339 552.115 735.601 551.674 734.589C550.454 731.789 549.214 728.999 547.934 726.229C545.264 720.449 542.464 714.729 539.534 709.079C533.664 697.779 527.264 686.749 520.364 676.039C516.914 670.689 513.334 665.419 509.634 660.239C507.714 657.549 505.754 654.879 503.764 652.239C503.48 651.868 502.254 650.267 501.809 649.68C501.266 648.993 500.252 647.703 499.994 647.379C484.224 627.549 466.534 609.229 447.124 592.929C444.614 590.819 442.074 588.739 439.504 586.699C438.594 585.979 435.904 583.909 438.314 585.749C437.114 584.829 435.904 583.909 434.694 583.009C429.644 579.239 424.494 575.609 419.254 572.119C408.784 565.149 397.924 558.759 386.724 553.019C381.124 550.149 375.434 547.439 369.674 544.899C368.841 544.528 368.001 544.173 367.167 543.805C365.919 543.298 364.685 542.786 363.434 542.289C360.614 541.169 357.784 540.089 354.934 539.049C340.614 533.829 325.914 529.749 311.054 526.369C249.664 512.429 185.994 509.199 128.074 482.479C107.264 472.879 88.2538 460.139 72.7738 443.159C58.7738 427.809 46.8237 410.229 38.1637 391.329C20.2537 352.229 13.7237 305.179 42.5537 269.499C58.8637 249.309 85.0738 237.509 110.734 236.499C140.444 235.329 169.614 248.109 194.354 263.439C207.364 271.499 219.634 280.689 231.574 290.239C236.909 294.5 242.161 298.854 247.536 303.066C247.099 302.719 250.116 305.038 250.674 305.459C252.064 306.509 253.464 307.549 254.874 308.579C257.704 310.649 260.554 312.689 263.434 314.679C275.374 322.929 287.784 330.009 300.894 336.189C300.97 336.225 301.04 336.258 301.104 336.288C301.162 336.31 301.226 336.333 301.294 336.359C302.064 336.659 302.834 336.979 303.614 337.279C305.154 337.879 306.714 338.439 308.274 338.979C311.364 340.039 314.484 340.979 317.644 341.789C320.805 342.596 323.992 343.2 327.198 343.759C327.931 343.811 328.672 343.903 329.404 343.969C330.974 344.099 332.544 344.179 334.114 344.229C337.514 344.329 340.894 344.169 344.284 343.889C344.555 343.866 344.772 343.85 344.944 343.839C345.133 343.793 345.413 343.731 345.814 343.649C347.374 343.329 348.934 343.029 350.474 342.649C352.294 342.199 354.104 341.669 355.884 341.079C356.384 340.914 358.304 340.211 359.07 339.944C359.689 339.648 361.354 338.892 361.754 338.689C363.014 338.049 364.244 337.379 365.454 336.669C366.864 335.849 368.244 334.979 369.584 334.059C370.681 333.312 372.319 331.934 371.131 332.949C373.023 331.333 374.891 329.721 376.654 327.949C377.804 326.799 378.904 325.609 379.974 324.389C380.188 324.144 380.97 323.209 381.512 322.569C381.956 321.953 382.967 320.6 383.194 320.269C383.984 319.119 384.754 317.939 385.494 316.749C387.104 314.149 388.584 311.469 389.924 308.719C390.544 307.439 391.134 306.149 391.704 304.849C390.434 307.699 391.524 305.169 392.024 303.789C394.074 298.189 395.614 292.399 396.644 286.529C396.673 286.351 396.783 285.725 396.874 285.216C396.898 285.055 396.916 284.919 396.924 284.849C397.074 283.429 397.214 281.999 397.314 280.569C397.514 277.719 397.594 274.849 397.544 271.989C397.495 268.941 397.194 265.942 396.965 262.906C396.881 262.367 396.797 261.828 396.704 261.289C396.424 259.679 396.114 258.069 395.774 256.469C394.344 249.809 392.294 243.349 389.884 236.989C389.69 236.477 389.524 236.063 389.439 235.854C389.234 235.387 389.026 234.921 388.814 234.459C388.144 232.969 387.444 231.489 386.714 230.029C385.254 227.099 383.704 224.209 382.064 221.369C378.624 215.409 374.784 209.719 370.704 204.179C370.479 203.872 370.257 203.578 370.095 203.365C369.701 202.87 369.303 202.377 368.904 201.879C367.864 200.579 366.804 199.309 365.734 198.039C363.584 195.499 361.384 193.019 359.124 190.589C354.424 185.519 349.504 180.649 344.374 176.019C341.634 173.549 338.814 171.189 335.954 168.859C335.673 168.63 335.493 168.482 335.387 168.393C334.996 168.1 334.603 167.81 334.214 167.519C332.874 166.519 331.524 165.539 330.164 164.579C318.954 156.659 306.914 149.969 294.434 144.269C292.732 143.496 291.011 142.752 289.299 141.99C291.726 143.072 288.211 141.534 287.354 141.189C284.294 139.949 281.224 138.769 278.134 137.619C271.654 135.219 265.114 133.009 258.524 130.939C245.164 126.739 231.624 123.099 218.064 119.579C189.524 112.179 160.794 105.299 133.104 95.0388C92.8438 80.1189 53.5537 59.2988 27.7037 23.9888Z" fill="#0092D7"/>
</svg>
