<svg width="1437" height="2093" viewBox="0 0 1437 2093" fill="none" xmlns="http://www.w3.org/2000/svg">
<path d="M59.4032 30.3031C59.4846 14.0109 46.3433 0.73737 30.0511 0.655887C13.7589 0.574403 0.485384 13.7158 0.403901 30.008L59.4032 30.3031ZM235.263 382.999L218.223 407.08L218.227 407.083L235.263 382.999ZM1066.45 1348.79L1072.84 1377.59L1072.85 1377.59L1066.45 1348.79ZM548.424 1083.24L564.237 1058.34L564.233 1058.33L548.424 1083.24ZM262.521 1034.41L251.638 1006.99L251.638 1006.99L262.521 1034.41ZM316.268 1607.11L299.945 1631.68L299.95 1631.68L316.268 1607.11ZM1067.84 1833.98L1059.01 1862.12L1059.01 1862.13L1067.84 1833.98ZM1417.08 2072.8L1438.84 2092.72L1478.68 2049.2L1456.92 2029.28L1417.08 2072.8ZM0.403901 30.008C-0.367301 184.206 97.7881 321.858 218.223 407.08L252.303 358.919C141.751 280.689 58.7592 159.069 59.4032 30.3031L0.403901 30.008ZM218.227 407.083C338.447 492.122 481.608 534.874 617.644 572.572L633.4 515.715C496.732 477.842 363.065 437.267 252.299 358.916L218.227 407.083ZM617.644 572.572C755.203 610.693 889.985 645.753 1007.21 715.951L1037.52 665.332C912.007 590.171 768.546 553.167 633.4 515.715L617.644 572.572ZM1007.21 715.951C1124.03 785.903 1219.75 895.889 1238.69 1024.13L1297.06 1015.51C1274.65 863.808 1163.44 740.739 1037.52 665.332L1007.21 715.951ZM1238.69 1024.13C1247.99 1087.1 1233.73 1154.93 1201.25 1210.38C1168.82 1265.75 1119.52 1306.78 1060.06 1319.99L1072.85 1377.59C1151.49 1360.12 1213.24 1306.65 1252.16 1240.2C1291.04 1173.83 1308.43 1092.52 1297.06 1015.51L1238.69 1024.13ZM1060.06 1319.99C974.216 1339.04 881.474 1301.77 802.182 1245.31L767.961 1293.37C852.28 1353.41 962.652 1402.04 1072.84 1377.59L1060.06 1319.99ZM802.182 1245.31C762.556 1217.09 725.75 1185.05 686.936 1152.13C648.569 1119.59 608.5 1086.44 564.237 1058.34L532.611 1108.14C573.107 1133.86 610.459 1164.63 648.775 1197.13C686.644 1229.24 725.782 1263.34 767.961 1293.37L802.182 1245.31ZM564.233 1058.33C475.943 1002.29 357.747 964.874 251.638 1006.99L273.404 1061.83C353.979 1029.85 451.326 1056.55 532.615 1108.15L564.233 1058.33ZM251.638 1006.99C125.987 1056.86 64.8708 1205.24 86.3774 1332.06L144.547 1322.19C126.551 1216.08 179.513 1099.09 273.404 1061.83L251.638 1006.99ZM86.3774 1332.06C107.933 1459.16 197.353 1563.53 299.945 1631.68L332.591 1582.53C238.408 1519.97 162.494 1428.02 144.547 1322.19L86.3774 1332.06ZM299.95 1631.68C416.6 1709.13 546.398 1747.23 676.132 1775.8C807.622 1804.76 935.766 1823.49 1059.01 1862.12L1076.66 1805.83C950.308 1766.22 814.7 1745.9 688.821 1718.18C561.187 1690.07 440.001 1653.85 332.586 1582.53L299.95 1631.68ZM1059.01 1862.13C1194.14 1904.48 1313.87 1978.32 1417.08 2072.8L1456.92 2029.28C1348.23 1929.79 1221.12 1851.1 1076.66 1805.83L1059.01 1862.13Z" fill="#0092D7"/>
</svg>
