<?xml version="1.0" encoding="UTF-8"?>
<svg xmlns="http://www.w3.org/2000/svg" version="1.1" viewBox="0 0 325.7 119.5">
  <defs>
    <style>
      .cls-1, .cls-2, .cls-3, .cls-4 {
        fill: none;
      }

      .cls-5 {
        fill: #d1d3d4;
      }

      .cls-6, .cls-7, .cls-8, .cls-9 {
        isolation: isolate;
      }

      .cls-6, .cls-8, .cls-9 {
        font-family: Montserrat-Regular, Montserrat;
      }

      .cls-6, .cls-9 {
        font-size: 9px;
      }

      .cls-8 {
        font-size: 6px;
      }

      .cls-8, .cls-9 {
        fill: #bdbfbe;
      }

      .cls-2 {
        stroke-dasharray: .5 .5;
      }

      .cls-2, .cls-3, .cls-4 {
        stroke-width: .5px;
      }

      .cls-2, .cls-4 {
        stroke: #d1d3d4;
        stroke-miterlimit: 10;
      }

      .cls-3 {
        stroke: #00aeef;
        stroke-linecap: round;
        stroke-linejoin: round;
      }
    </style>
  </defs>
  <!-- Generator: Adobe Illustrator 28.6.0, SVG Export Plug-In . SVG Version: 1.2.0 Build 709)  -->
  <g>
    <g id="Layer_1">
      <g class="cls-7">
        <text class="cls-9" transform="translate(18.3 92.5)"><tspan x="0" y="0">A</tspan></text>
      </g>
      <g class="cls-7">
        <text class="cls-9" transform="translate(148.4 76.1)"><tspan x="0" y="0">XS</tspan></text>
      </g>
      <g class="cls-7">
        <text class="cls-9" transform="translate(18.1 105.8)"><tspan x="0" y="0">B</tspan></text>
      </g>
      <g class="cls-7">
        <text class="cls-6" transform="translate(28.5 92.5)"><tspan x="0" y="0">HALF CHEST</tspan></text>
      </g>
      <g class="cls-7">
        <text class="cls-6" transform="translate(18.3 76.1)"><tspan x="0" y="0">In centimeters</tspan></text>
      </g>
      <g class="cls-7">
        <text class="cls-6" transform="translate(148.4 92.5)"><tspan x="0" y="0">47</tspan></text>
      </g>
      <g class="cls-7">
        <text class="cls-6" transform="translate(148.5 105.9)"><tspan x="0" y="0">68</tspan></text>
      </g>
      <g class="cls-7">
        <text class="cls-9" transform="translate(174 76.1)"><tspan x="0" y="0">S</tspan></text>
      </g>
      <g class="cls-7">
        <text class="cls-6" transform="translate(171.7 92.5)"><tspan x="0" y="0">50</tspan></text>
      </g>
      <g class="cls-7">
        <text class="cls-6" transform="translate(171.3 105.9)"><tspan x="0" y="0">70</tspan></text>
      </g>
      <g class="cls-7">
        <text class="cls-9" transform="translate(195.2 76.1)"><tspan x="0" y="0">M</tspan></text>
      </g>
      <g class="cls-7">
        <text class="cls-6" transform="translate(190.9 92.5)"><tspan x="0" y="0">53</tspan></text>
      </g>
      <g class="cls-7">
        <text class="cls-6" transform="translate(194.3 105.9)"><tspan x="0" y="0">72</tspan></text>
      </g>
      <g class="cls-7">
        <text class="cls-9" transform="translate(219.6 76.1)"><tspan x="0" y="0">L</tspan></text>
      </g>
      <g class="cls-7">
        <text class="cls-6" transform="translate(217 92.5)"><tspan x="0" y="0">56</tspan></text>
      </g>
      <g class="cls-7">
        <text class="cls-6" transform="translate(216.9 105.9)"><tspan x="0" y="0">74</tspan></text>
      </g>
      <g class="cls-7">
        <text class="cls-9" transform="translate(239.5 76.1)"><tspan x="0" y="0">XL</tspan></text>
      </g>
      <g class="cls-7">
        <text class="cls-6" transform="translate(236.1 92.5)"><tspan x="0" y="0">59</tspan></text>
      </g>
      <g class="cls-7">
        <text class="cls-6" transform="translate(239.7 105.9)"><tspan x="0" y="0">76</tspan></text>
      </g>
      <g class="cls-7">
        <text class="cls-9" transform="translate(259.6 76.1)"><tspan x="0" y="0">2XL</tspan></text>
      </g>
      <g class="cls-7">
        <text class="cls-6" transform="translate(262.2 92.5)"><tspan x="0" y="0">62</tspan></text>
      </g>
      <g class="cls-7">
        <text class="cls-6" transform="translate(262.2 105.9)"><tspan x="0" y="0">78</tspan></text>
      </g>
      <g class="cls-7">
        <text class="cls-9" transform="translate(282.4 76.1)"><tspan x="0" y="0">3XL</tspan></text>
      </g>
      <g class="cls-7">
        <text class="cls-6" transform="translate(284.9 92.5)"><tspan x="0" y="0">65</tspan></text>
      </g>
      <g class="cls-7">
        <text class="cls-6" transform="translate(285 105.9)"><tspan x="0" y="0">80</tspan></text>
      </g>
      <g class="cls-7">
        <text class="cls-6" transform="translate(28.4 105.8)"><tspan x="0" y="0">BODY LENGTH</tspan></text>
      </g>
      <rect class="cls-4" x="2.5" y="63.4" width="140.2" height="48.6"/>
      <rect class="cls-4" x="142.7" y="63.4" width="22.7" height="48.6"/>
      <rect class="cls-4" x="165.4" y="63.4" width="22.7" height="48.6"/>
      <rect class="cls-4" x="188.2" y="63.4" width="22.7" height="48.6"/>
      <rect class="cls-4" x="210.9" y="63.4" width="22.7" height="48.6"/>
      <rect class="cls-4" x="233.6" y="63.4" width="22.7" height="48.6"/>
      <rect class="cls-4" x="256.3" y="63.4" width="22.7" height="48.6"/>
      <rect class="cls-4" x="279" y="63.4" width="22.7" height="48.6"/>
      <g class="cls-7">
        <text class="cls-9" transform="translate(305.1 76.1)"><tspan x="0" y="0">4XL</tspan></text>
      </g>
      <g class="cls-7">
        <text class="cls-6" transform="translate(307.6 92.5)"><tspan x="0" y="0">70</tspan></text>
      </g>
      <g class="cls-7">
        <text class="cls-6" transform="translate(307.7 105.9)"><tspan x="0" y="0">82</tspan></text>
      </g>
      <rect class="cls-4" x="301.8" y="63.4" width="22.7" height="48.6"/>
      <g>
        <g>
          <line class="cls-4" x1="27.2" y1="26.9" x2="47.4" y2="26.9"/>
          <polygon class="cls-5" points="25.1 26.9 28.1 28.2 27.3 26.9 28.1 25.7 25.1 26.9"/>
          <polygon class="cls-5" points="49.5 26.9 46.6 28.2 47.3 26.9 46.6 25.7 49.5 26.9"/>
        </g>
        <g>
          <line class="cls-1" x1="66.6" y1="12.2" x2="66.6" y2="52"/>
          <g>
            <line class="cls-4" x1="66.6" y1="14.3" x2="66.6" y2="49.9"/>
            <polygon class="cls-5" points="66.6 12.2 65.4 15.2 66.6 14.5 67.9 15.2 66.6 12.2"/>
            <polygon class="cls-5" points="66.6 52 65.4 49.1 66.6 49.8 67.9 49.1 66.6 52"/>
          </g>
        </g>
        <g>
          <line class="cls-4" x1="41.2" y1="52.2" x2="41.5" y2="52.2"/>
          <line class="cls-2" x1="42" y1="52.2" x2="68.8" y2="52.2"/>
          <line class="cls-4" x1="69.1" y1="52.2" x2="69.4" y2="52.2"/>
        </g>
        <g>
          <line class="cls-4" x1="41.2" y1="12.2" x2="41.5" y2="12.2"/>
          <line class="cls-2" x1="42" y1="12.2" x2="68.8" y2="12.2"/>
          <line class="cls-4" x1="69.1" y1="12.2" x2="69.4" y2="12.2"/>
        </g>
        <g class="cls-7">
          <text class="cls-8" transform="translate(35 32.6)"><tspan x="0" y="0">A</tspan></text>
        </g>
        <g class="cls-7">
          <text class="cls-8" transform="translate(67.6 34.3)"><tspan x="0" y="0">B</tspan></text>
        </g>
        <g>
          <path class="cls-3" d="M49.7,24.9c-.7,4.1.7,27.3.7,27.3h-26.3c1-11.1.7-27.3.7-27.3h-11.2v-10.5l11.3-1.4,5.7-.7h13l17.3,2.2v10.6h-11.2v-12.1"/>
          <line class="cls-3" x1="24.8" y1="24.9" x2="24.8" y2="12.9"/>
          <path class="cls-3" d="M30.6,12.2s2.2,3.6,6.6,3.6,6.3-3.6,6.3-3.6"/>
          <path class="cls-3" d="M33.8,12.2s.9,2.1,3.3,2.1,3.6-2.1,3.6-2.1"/>
        </g>
      </g>
    </g>
  </g>
</svg>