<?xml version="1.0" encoding="UTF-8"?>
<svg xmlns="http://www.w3.org/2000/svg" version="1.1" viewBox="0 0 302.1 119.5">
  <defs>
    <style>
      .cls-1 {
        fill: #d1d3d4;
      }

      .cls-2, .cls-3, .cls-4, .cls-5 {
        isolation: isolate;
      }

      .cls-2, .cls-4, .cls-5 {
        font-family: Montserrat-Regular, Montserrat;
      }

      .cls-2, .cls-5 {
        font-size: 9px;
      }

      .cls-4 {
        font-size: 6px;
      }

      .cls-4, .cls-5 {
        fill: #bdbfbe;
      }

      .cls-6 {
        stroke-dasharray: .5 .5;
      }

      .cls-6, .cls-7, .cls-8 {
        fill: none;
        stroke-width: .5px;
      }

      .cls-6, .cls-8 {
        stroke: #d1d3d4;
        stroke-miterlimit: 10;
      }

      .cls-7 {
        stroke: #00aeef;
        stroke-linecap: round;
        stroke-linejoin: round;
      }
    </style>
  </defs>
  <!-- Generator: Adobe Illustrator 28.6.0, SVG Export Plug-In . SVG Version: 1.2.0 Build 709)  -->
  <g>
    <g id="Layer_1">
      <g class="cls-3">
        <text class="cls-5" transform="translate(17.2 92.3)"><tspan x="0" y="0">A</tspan></text>
      </g>
      <g class="cls-3">
        <text class="cls-5" transform="translate(147.3 75.9)"><tspan x="0" y="0">XS</tspan></text>
      </g>
      <g class="cls-3">
        <text class="cls-5" transform="translate(17 105.6)"><tspan x="0" y="0">B</tspan></text>
      </g>
      <g class="cls-3">
        <text class="cls-2" transform="translate(27.4 92.3)"><tspan x="0" y="0">HALF CHEST</tspan></text>
      </g>
      <g class="cls-3">
        <text class="cls-2" transform="translate(17.2 75.9)"><tspan x="0" y="0">In centimeters</tspan></text>
      </g>
      <g class="cls-3">
        <text class="cls-2" transform="translate(147.3 92.3)"><tspan x="0" y="0">49</tspan></text>
      </g>
      <g class="cls-3">
        <text class="cls-2" transform="translate(147.4 105.6)"><tspan x="0" y="0">68</tspan></text>
      </g>
      <g class="cls-3">
        <text class="cls-5" transform="translate(172.9 75.9)"><tspan x="0" y="0">S</tspan></text>
      </g>
      <g class="cls-3">
        <text class="cls-2" transform="translate(170.6 92.3)"><tspan x="0" y="0">52</tspan></text>
      </g>
      <g class="cls-3">
        <text class="cls-2" transform="translate(170.2 105.6)"><tspan x="0" y="0">70</tspan></text>
      </g>
      <g class="cls-3">
        <text class="cls-5" transform="translate(194.1 75.9)"><tspan x="0" y="0">M</tspan></text>
      </g>
      <g class="cls-3">
        <text class="cls-2" transform="translate(189.8 92.3)"><tspan x="0" y="0">55,5</tspan></text>
      </g>
      <g class="cls-3">
        <text class="cls-2" transform="translate(193.2 105.6)"><tspan x="0" y="0">72</tspan></text>
      </g>
      <g class="cls-3">
        <text class="cls-5" transform="translate(218.5 75.9)"><tspan x="0" y="0">L</tspan></text>
      </g>
      <g class="cls-3">
        <text class="cls-2" transform="translate(215.8 92.3)"><tspan x="0" y="0">59</tspan></text>
      </g>
      <g class="cls-3">
        <text class="cls-2" transform="translate(215.8 105.6)"><tspan x="0" y="0">74</tspan></text>
      </g>
      <g class="cls-3">
        <text class="cls-5" transform="translate(238.4 75.9)"><tspan x="0" y="0">XL</tspan></text>
      </g>
      <g class="cls-3">
        <text class="cls-2" transform="translate(235 92.3)"><tspan x="0" y="0">62,5</tspan></text>
      </g>
      <g class="cls-3">
        <text class="cls-2" transform="translate(238.5 105.6)"><tspan x="0" y="0">76</tspan></text>
      </g>
      <g class="cls-3">
        <text class="cls-5" transform="translate(258.5 75.9)"><tspan x="0" y="0">2XL</tspan></text>
      </g>
      <g class="cls-3">
        <text class="cls-2" transform="translate(261.1 92.3)"><tspan x="0" y="0">66</tspan></text>
      </g>
      <g class="cls-3">
        <text class="cls-2" transform="translate(261.1 105.6)"><tspan x="0" y="0">78</tspan></text>
      </g>
      <g class="cls-3">
        <text class="cls-5" transform="translate(281.3 75.9)"><tspan x="0" y="0">3XL</tspan></text>
      </g>
      <g class="cls-3">
        <text class="cls-2" transform="translate(283.7 92.3)"><tspan x="0" y="0">70</tspan></text>
      </g>
      <g class="cls-3">
        <text class="cls-2" transform="translate(283.9 105.6)"><tspan x="0" y="0">79</tspan></text>
      </g>
      <g class="cls-3">
        <text class="cls-2" transform="translate(27.3 105.6)"><tspan x="0" y="0">BODY LENGTH</tspan></text>
      </g>
      <g>
        <polygon class="cls-7" points="39.3 14.9 45.3 11.7 47.5 12 47.1 12.9 39.3 14.9"/>
        <line class="cls-7" x1="25.4" y1="26.7" x2="25.4" y2="14.1"/>
        <line class="cls-7" x1="52" y1="26.7" x2="52" y2="14.2"/>
        <line class="cls-7" x1="26.2" y1="50" x2="51.2" y2="50"/>
        <line class="cls-7" x1="48.3" y1="47.3" x2="48.3" y2="38.4"/>
        <line class="cls-7" x1="29.1" y1="47.3" x2="29.1" y2="38.4"/>
        <line class="cls-7" x1="15" y1="46" x2="18.9" y2="46.8"/>
        <line class="cls-7" x1="58.2" y1="47" x2="62.5" y2="46"/>
        <line class="cls-7" x1="37.2" y1="14.7" x2="37.2" y2="23.4"/>
        <circle class="cls-7" cx="37.2" cy="23.8" r=".4"/>
        <line class="cls-7" x1="40.3" y1="14.7" x2="40.3" y2="23.4"/>
        <circle class="cls-7" cx="40.3" cy="23.8" r=".4"/>
        <ellipse class="cls-7" cx="38.7" cy="11.4" rx="3.5" ry="1.8"/>
        <g>
          <line class="cls-8" x1="27.8" y1="27.1" x2="49.7" y2="27.1"/>
          <polygon class="cls-1" points="25.6 27.1 28.6 28.3 27.9 27.1 28.6 25.9 25.6 27.1"/>
          <polygon class="cls-1" points="51.8 27.1 48.8 28.3 49.5 27.1 48.8 25.9 51.8 27.1"/>
        </g>
        <g>
          <line class="cls-8" x1="67.7" y1="14.1" x2="67.7" y2="49.7"/>
          <polygon class="cls-1" points="67.7 12 66.5 15 67.7 14.3 68.9 15 67.7 12"/>
          <polygon class="cls-1" points="67.7 51.8 66.5 48.8 67.7 49.5 68.9 48.8 67.7 51.8"/>
        </g>
        <g>
          <line class="cls-8" x1="47.5" y1="52" x2="47.7" y2="52"/>
          <line class="cls-6" x1="48.2" y1="52" x2="70.2" y2="52"/>
          <line class="cls-8" x1="70.5" y1="52" x2="70.7" y2="52"/>
        </g>
        <g>
          <line class="cls-8" x1="47.5" y1="12" x2="47.7" y2="12"/>
          <line class="cls-6" x1="48.2" y1="12" x2="70.2" y2="12"/>
          <line class="cls-8" x1="70.5" y1="12" x2="70.7" y2="12"/>
        </g>
        <path class="cls-7" d="M32.2,11.8c-1.5,0-4.4-4.3,7.3-4.1,11.8.2,5.8,4.1,5.8,4.1l2.2.2-.4.9,3.9,1.1c5.6.6,6.6,6.3,6.6,6.3l5.3,28-4.1,1.1-6.9-22.6c0,23.7-1,25.2-1,25.2h-24.4c-1.3-4.3-1.2-25.2-1.2-25.2l-7.1,22.3-3.6-.8s3.8-21.3,5.1-28,10.6-7.3,10.6-7.3l-.5-.9,2.3-.2,5.8,3.2-7.7-2"/>
        <g class="cls-3">
          <text class="cls-4" transform="translate(36.5 32.8)"><tspan x="0" y="0">A</tspan></text>
        </g>
        <g class="cls-3">
          <text class="cls-4" transform="translate(68.7 34.1)"><tspan x="0" y="0">B</tspan></text>
        </g>
      </g>
      <rect class="cls-8" x="1.4" y="63.2" width="140.2" height="48.6"/>
      <rect class="cls-8" x="141.6" y="63.2" width="22.7" height="48.6"/>
      <rect class="cls-8" x="164.3" y="63.2" width="22.7" height="48.6"/>
      <rect class="cls-8" x="187.1" y="63.2" width="22.7" height="48.6"/>
      <rect class="cls-8" x="209.8" y="63.2" width="22.7" height="48.6"/>
      <rect class="cls-8" x="232.5" y="63.2" width="22.7" height="48.6"/>
      <rect class="cls-8" x="255.2" y="63.2" width="22.7" height="48.6"/>
      <rect class="cls-8" x="277.9" y="63.2" width="22.7" height="48.6"/>
    </g>
  </g>
</svg>