<?xml version="1.0" encoding="UTF-8"?>
<svg xmlns="http://www.w3.org/2000/svg" version="1.1" viewBox="0 0 302.1 119.5">
  <defs>
    <style>
      .cls-1, .cls-2, .cls-3, .cls-4, .cls-5 {
        fill: none;
      }

      .cls-6 {
        fill: #d1d3d4;
      }

      .cls-7, .cls-8, .cls-9, .cls-10 {
        isolation: isolate;
      }

      .cls-7, .cls-9, .cls-10 {
        font-family: Montserrat-Regular, Montserrat;
      }

      .cls-7, .cls-10 {
        font-size: 9px;
      }

      .cls-9 {
        font-size: 6px;
      }

      .cls-9, .cls-10 {
        fill: #bdbfbe;
      }

      .cls-2 {
        stroke-dasharray: .5 .5;
      }

      .cls-2, .cls-4 {
        stroke-width: .2px;
      }

      .cls-2, .cls-4, .cls-5 {
        stroke: #d1d3d4;
        stroke-miterlimit: 10;
      }

      .cls-3 {
        stroke: #00aeef;
        stroke-linecap: round;
        stroke-linejoin: round;
      }

      .cls-3, .cls-5 {
        stroke-width: .5px;
      }
    </style>
  </defs>
  <!-- Generator: Adobe Illustrator 28.6.0, SVG Export Plug-In . SVG Version: 1.2.0 Build 709)  -->
  <g>
    <g id="Layer_1">
      <g class="cls-8">
        <text class="cls-10" transform="translate(17.2 94.1)"><tspan x="0" y="0">A</tspan></text>
      </g>
      <g class="cls-8">
        <text class="cls-10" transform="translate(147.3 77.7)"><tspan x="0" y="0">XS</tspan></text>
      </g>
      <g class="cls-8">
        <text class="cls-10" transform="translate(17 107.4)"><tspan x="0" y="0">B</tspan></text>
      </g>
      <g class="cls-8">
        <text class="cls-7" transform="translate(27.4 94.1)"><tspan x="0" y="0">HALF CHEST</tspan></text>
      </g>
      <g class="cls-8">
        <text class="cls-7" transform="translate(17.2 77.7)"><tspan x="0" y="0">In centimeters</tspan></text>
      </g>
      <g class="cls-8">
        <text class="cls-7" transform="translate(147.3 94.1)"><tspan x="0" y="0">49</tspan></text>
      </g>
      <g class="cls-8">
        <text class="cls-7" transform="translate(147.4 107.4)"><tspan x="0" y="0">68</tspan></text>
      </g>
      <g class="cls-8">
        <text class="cls-10" transform="translate(172.9 77.7)"><tspan x="0" y="0">S</tspan></text>
      </g>
      <g class="cls-8">
        <text class="cls-7" transform="translate(170.6 94.1)"><tspan x="0" y="0">52</tspan></text>
      </g>
      <g class="cls-8">
        <text class="cls-7" transform="translate(170.2 107.4)"><tspan x="0" y="0">70</tspan></text>
      </g>
      <g class="cls-8">
        <text class="cls-10" transform="translate(194.1 77.7)"><tspan x="0" y="0">M</tspan></text>
      </g>
      <g class="cls-8">
        <text class="cls-7" transform="translate(189.8 94.1)"><tspan x="0" y="0">55,5</tspan></text>
      </g>
      <g class="cls-8">
        <text class="cls-7" transform="translate(193.2 107.4)"><tspan x="0" y="0">72</tspan></text>
      </g>
      <g class="cls-8">
        <text class="cls-10" transform="translate(218.5 77.7)"><tspan x="0" y="0">L</tspan></text>
      </g>
      <g class="cls-8">
        <text class="cls-7" transform="translate(215.8 94.1)"><tspan x="0" y="0">59</tspan></text>
      </g>
      <g class="cls-8">
        <text class="cls-7" transform="translate(215.8 107.4)"><tspan x="0" y="0">74</tspan></text>
      </g>
      <g class="cls-8">
        <text class="cls-10" transform="translate(238.4 77.7)"><tspan x="0" y="0">XL</tspan></text>
      </g>
      <g class="cls-8">
        <text class="cls-7" transform="translate(235 94.1)"><tspan x="0" y="0">62,5</tspan></text>
      </g>
      <g class="cls-8">
        <text class="cls-7" transform="translate(238.5 107.4)"><tspan x="0" y="0">76</tspan></text>
      </g>
      <g class="cls-8">
        <text class="cls-10" transform="translate(258.5 77.7)"><tspan x="0" y="0">2XL</tspan></text>
      </g>
      <g class="cls-8">
        <text class="cls-7" transform="translate(261.1 94.1)"><tspan x="0" y="0">66</tspan></text>
      </g>
      <g class="cls-8">
        <text class="cls-7" transform="translate(261.1 107.4)"><tspan x="0" y="0">78</tspan></text>
      </g>
      <g class="cls-8">
        <text class="cls-10" transform="translate(281.3 77.7)"><tspan x="0" y="0">3XL</tspan></text>
      </g>
      <g class="cls-8">
        <text class="cls-7" transform="translate(283.7 94.1)"><tspan x="0" y="0">70</tspan></text>
      </g>
      <g class="cls-8">
        <text class="cls-7" transform="translate(283.9 107.4)"><tspan x="0" y="0">79</tspan></text>
      </g>
      <g class="cls-8">
        <text class="cls-7" transform="translate(27.3 107.4)"><tspan x="0" y="0">BODY LENGTH</tspan></text>
      </g>
      <rect class="cls-5" x="1.4" y="65" width="140.2" height="48.6"/>
      <rect class="cls-5" x="141.6" y="65" width="22.7" height="48.6"/>
      <rect class="cls-5" x="164.3" y="65" width="22.7" height="48.6"/>
      <rect class="cls-5" x="187.1" y="65" width="22.7" height="48.6"/>
      <rect class="cls-5" x="209.8" y="65" width="22.7" height="48.6"/>
      <rect class="cls-5" x="232.5" y="65" width="22.7" height="48.6"/>
      <rect class="cls-5" x="255.2" y="65" width="22.7" height="48.6"/>
      <rect class="cls-5" x="277.9" y="65" width="22.7" height="48.6"/>
      <g>
        <g>
          <line class="cls-5" x1="19.8" y1="29.2" x2="41.7" y2="29.2"/>
          <polygon class="cls-6" points="17.7 29.2 20.6 30.4 19.9 29.2 20.6 27.9 17.7 29.2"/>
          <polygon class="cls-6" points="43.8 29.2 40.9 30.4 41.6 29.2 40.9 27.9 43.8 29.2"/>
        </g>
        <g>
          <line class="cls-1" x1="58.9" y1="13.9" x2="58.9" y2="53.7"/>
          <g>
            <line class="cls-5" x1="58.9" y1="16" x2="58.9" y2="51.6"/>
            <polygon class="cls-6" points="58.9 13.9 57.7 16.9 58.9 16.2 60.1 16.9 58.9 13.9"/>
            <polygon class="cls-6" points="58.9 53.7 57.7 50.7 58.9 51.4 60.1 50.7 58.9 53.7"/>
          </g>
        </g>
        <g>
          <line class="cls-4" x1="40" y1="53.9" x2="40.3" y2="53.9"/>
          <line class="cls-2" x1="40.8" y1="53.9" x2="62.8" y2="53.9"/>
          <line class="cls-4" x1="63" y1="53.9" x2="63.3" y2="53.9"/>
        </g>
        <g>
          <line class="cls-4" x1="40" y1="13.9" x2="40.3" y2="13.9"/>
          <line class="cls-2" x1="40.8" y1="13.9" x2="62.8" y2="13.9"/>
          <line class="cls-4" x1="63" y1="13.9" x2="63.3" y2="13.9"/>
        </g>
        <g class="cls-8">
          <text class="cls-9" transform="translate(28.5 34.8)"><tspan x="0" y="0">A</tspan></text>
        </g>
        <g class="cls-8">
          <text class="cls-9" transform="translate(59.9 36)"><tspan x="0" y="0">B</tspan></text>
        </g>
        <g>
          <path class="cls-3" d="M9.9,50.7l7.1-22.5s.2,23.2,1.2,25.6h25.2s1.9-3,.9-25.6l7.7,22.5,4-.9-5.8-30.4s0-3.2-5.4-4.5c-5.5-1.3-9.3-2.3-9.3-2.3h-9.9l-9.2,2.3s-4,1.1-4.8,4.5c-.8,3.4-5.8,30.4-5.8,30.4l4.1.9"/>
          <line class="cls-3" x1="17.9" y1="51.8" x2="43.9" y2="51.8"/>
          <line class="cls-3" x1="6.2" y1="47.7" x2="10.5" y2="48.9"/>
          <line class="cls-3" x1="51.3" y1="48.7" x2="55.6" y2="47.8"/>
          <line class="cls-3" x1="44.3" y1="28.2" x2="44.7" y2="14.9"/>
          <line class="cls-3" x1="17" y1="28.2" x2="17" y2="14.7"/>
          <path class="cls-3" d="M25.6,12.5s2.7,2.6,5.3,2.6,4.6-2.6,4.6-2.6"/>
          <path class="cls-3" d="M23.1,13.2s3.1,4,7.8,4,7.6-3.8,7.6-3.8"/>
        </g>
      </g>
    </g>
  </g>
</svg>