<?xml version="1.0" encoding="UTF-8"?>
<svg xmlns="http://www.w3.org/2000/svg" version="1.1" viewBox="0 0 81.7 80.8">
  <defs>
    <style>
      .cls-1 {
        fill: none;
        stroke: #0092d7;
        stroke-linecap: round;
        stroke-linejoin: round;
        stroke-width: 2px;
      }
    </style>
  </defs>
  <!-- Generator: Adobe Illustrator 28.6.0, SVG Export Plug-In . SVG Version: 1.2.0 Build 709)  -->
  <g>
    <g id="Layer_1">
      <g>
        <path class="cls-1" d="M14.8,16.8l65.9,22.8-13.5,35.6c-1.4,3.7-5.6,5.6-9.3,4.2L5.7,60.1c-3.3-1.2-5.2-4.6-4.6-8,1.1-6.6,4.3-18.5,13.7-35.3Z"/>
        <path class="cls-1" d="M14.8,16.8l25.1-12.4S47.9,0,53.6,1.2c5.7,1.3,8.5,4.8,11.2,7.9,2.7,3.1,11.8,16.1,15.9,30.4L14.8,16.8Z"/>
        <path class="cls-1" d="M14.1,18.2l16.7,23.6s5.7,9.6,10.6,11.1c5,1.5,12.3-1.2,16.7-3.7,4.4-2.5,22.6-9.5,22.6-9.5L14.8,16.8l-.8,1.4Z"/>
        <path class="cls-1" d="M44.6,53.3c9.9,4.6,14.7,14.5,20.5,24.9"/>
        <path class="cls-1" d="M2.1,57.2s22.3-8.7,36.5-5.9"/>
      </g>
    </g>
  </g>
</svg>