<?xml version="1.0" encoding="UTF-8"?>
<svg xmlns="http://www.w3.org/2000/svg" version="1.1" viewBox="0 0 27.6 63.9">
  <defs>
    <style>
      .cls-1 {
        fill: #0092d7;
      }

      .cls-2 {
        fill: none;
        stroke: #0092d7;
        stroke-linecap: round;
        stroke-linejoin: round;
        stroke-width: 2px;
      }
    </style>
  </defs>
  <!-- Generator: Adobe Illustrator 28.6.0, SVG Export Plug-In . SVG Version: 1.2.0 Build 709)  -->
  <g>
    <g id="Layer_1">
      <g>
        <path class="cls-1" d="M3.6,63.5c1.2-1.7,2.4-3.5,3.6-5.2s1.3-1.6,1.4-2.6-.6-1.8-1.6-2.2-1.9-.7-2.8-1.1-1.8-.9-2.8-.7c-2.2.5-1.2,3.5-.9,5,.4,2.2.9,4.3,1.2,6.5s.8.8,1.2.7.8-.7.7-1.2c-.2-1.6-.6-3.1-.9-4.7s-.3-1.6-.5-2.4-.1-.8-.2-1.2,0-.3,0-.5,0-.4,0-.4-.1,0-.1,0c0,.1,0,0,0,0s.2,0,.2,0c.4.1.7.3,1.1.4.8.3,1.5.6,2.3.9s.8.3,1.1.5c-.4-.2,0,0,0,0,.1,0,0,.1,0,0,0-.3,0,0-.2,0-.4.7-.9,1.4-1.4,2.1-1.1,1.6-2.2,3.2-3.3,4.8s0,1.1.4,1.4,1.1,0,1.4-.4h0Z"/>
        <path class="cls-1" d="M2.2,53.1c2.4-6.1,4.8-12.2,7.2-18.3s2.4-6.2,3.6-9.3,2.3-5.8,3.3-8.7,2-6.8,2.2-10.3l-1,1c2.7.3,5.5.6,8.2.9l-1-1.3c-3.8,12.7-7.3,25.7-12.9,37.8-1.6,3.4-3.3,6.7-5.2,9.9s1.1,2.1,1.7,1c6.8-11.4,11-24,14.8-36.6s2.3-7.7,3.5-11.5-.3-1.2-1-1.3c-2.7-.3-5.5-.6-8.2-.9s-1,.5-1,1c-.5,6.2-2.9,12-5.2,17.7s-4.8,12.1-7.1,18.2-2.7,6.8-4,10.2.2,1.1.7,1.2,1-.2,1.2-.7h0Z"/>
        <path class="cls-1" d="M18.6,6.7c.6-2,2.1-4.6,4.5-4.7s2.1.3,2.4,1.4,0,2.4-.5,3.4-.1,1.1.4,1.4,1.1.1,1.4-.4c1.1-2.3,1.5-5.7-1-7.2s-5.4-.2-7.1,1.8-1.5,2.4-1.9,3.8,1.6,1.8,1.9.5h0Z"/>
        <path class="cls-1" d="M20.8,6.7c-2.5,12.6-7.9,24.4-13,36.2s-2.8,6.6-4.2,10,.2,1.1.7,1.2,1-.2,1.2-.7c4.8-12,10.6-23.5,14.5-35.8,1.1-3.4,2-6.9,2.7-10.4s-1.7-1.8-1.9-.5h0Z"/>
        <path class="cls-2" d="M2.1,58.4s1.6-.2,2.5.9l-1.7,2.4-.9-3.3Z"/>
      </g>
    </g>
  </g>
</svg>