<?xml version="1.0" encoding="UTF-8"?>
<svg xmlns="http://www.w3.org/2000/svg" version="1.1" viewBox="0 0 65.9 78.2">
  <defs>
    <style>
      .cls-1 {
        fill: #0092d7;
      }

      .cls-2 {
        fill: none;
        stroke: #0092d7;
        stroke-linecap: round;
        stroke-linejoin: round;
        stroke-width: 2px;
      }
    </style>
  </defs>
  <!-- Generator: Adobe Illustrator 28.6.0, SVG Export Plug-In . SVG Version: 1.2.0 Build 709)  -->
  <g>
    <g id="Layer_1">
      <g>
        <path class="cls-2" d="M29.3,2.2s20.1-6.5,29.2,10.6c9.1,17,5.8,39.8,5.8,39.8,0,0-2.8,17.5-19.2,23.1-4.9,1.7-10.3,1.9-15.4.9-9.2-1.9-25.8-8.1-28.7-28.3,0,0-1.9-16.7,12.4-32.7C25.4,2.1,26.9,6.4,28.4,7.4"/>
        <path class="cls-2" d="M41.2,20.2s5,10.4,8.9,13"/>
        <path class="cls-2" d="M18.2,35.5s2.8-5.5,4.5-7c1.7-1.5,6.2-6.4,7.5-8.8"/>
        <path class="cls-1" d="M25.2,31.7s2-.2,2.3,2.1-1.7,2.6-2.2,2.5-1.7-.3-1.9-2.1c-.2-1.8,1.3-2.4,1.8-2.4Z"/>
        <path class="cls-1" d="M40.4,30.2s2-.2,2.3,2.1c.3,2.2-1.7,2.6-2.2,2.5s-1.7-.3-1.9-2.1,1.3-2.4,1.8-2.4Z"/>
        <path class="cls-2" d="M24.1,55.9s.5,10.7,8,10.8c7.5,0,12.8-6.2,12.8-6.2,0,0,4.6-5.1,1-8.9"/>
      </g>
    </g>
  </g>
</svg>