<?xml version="1.0" encoding="UTF-8"?>
<svg id="Layer_1" xmlns="http://www.w3.org/2000/svg" viewBox="0 0 94.57 14.18">
  <defs>
    <style>
      .cls-1 {
        font-family: AvenirNextLTPro-Bold, 'Avenir Next LT Pro';
        font-size: 3.02px;
        font-weight: 700;
      }
    </style>
  </defs>
  <g>
    <text class="cls-1" transform="translate(6 8.79)"><tspan x="0" y="0">30ยบ</tspan></text>
    <path d="M15.33,3.36c-.1.36-.21.71-.3,1.07-.6,2.22-1.2,4.44-1.8,6.66-.03.1-.06.13-.17.13-3.21,0-6.43,0-9.64,0-.1,0-.14-.03-.17-.13-.69-2.55-1.38-5.1-2.07-7.66,0-.03-.02-.05-.03-.07,0-.06,0-.13,0-.19.06-.06.12-.15.2-.18.16-.07.33.02.38.21.09.29.17.59.24.89.03.1.07.17.16.22.08.05.16.11.24.16.37.24.73.24,1.1,0,.23-.15.45-.3.68-.45.36-.23.72-.23,1.08,0,.23.15.45.3.68.45.37.24.74.24,1.11,0,.22-.15.44-.3.67-.44.36-.23.73-.23,1.09,0,.23.15.45.3.68.45.37.24.73.24,1.1,0,.22-.14.44-.29.66-.44.37-.24.76-.24,1.13,0,.22.15.44.3.67.44.36.23.71.22,1.08.01.27-.15.44-.35.48-.66.03-.18.09-.35.14-.53.04-.14.08-.28.25-.31.17-.04.28.06.36.19v.19ZM2.27,5.1s.01.07.02.09c.48,1.77.96,3.55,1.43,5.32.03.1.07.13.17.13,2.91,0,5.81,0,8.72,0,.11,0,.15-.03.18-.13.47-1.76.94-3.51,1.42-5.27.01-.04.02-.08.02-.13-.68.23-1.06.18-1.66-.22-.18-.12-.36-.24-.54-.36-.15-.11-.31-.11-.46,0-.22.15-.45.31-.68.45-.58.36-1.16.36-1.73,0-.23-.14-.45-.3-.68-.45-.15-.1-.3-.1-.45,0-.23.15-.46.31-.69.46-.57.35-1.15.35-1.72,0-.23-.14-.45-.3-.68-.45-.16-.11-.31-.1-.46,0-.22.15-.45.3-.68.45-.2.13-.42.21-.67.25-.3.04-.57-.02-.86-.13Z"/>
  </g>
  <g>
    <g id="oHooWd">
      <path d="M40.32,14.18h-.19c-.26-.2-.26-.35-.03-.59.3-.3.59-.6.89-.89.09-.09.13-.18.13-.3,0-3.67,0-7.34,0-11.01,0-.06,0-.13,0-.21.08,0,.14,0,.21,0,3.67,0,7.35,0,11.02,0,.12,0,.2-.03.28-.12.3-.3.6-.6.9-.9.23-.23.39-.23.59.03v.19c-.07.08-.13.16-.2.23-.28.29-.57.58-.86.86-.09.09-.12.18-.12.3,0,3.67,0,7.33,0,11v.21h-.21c-3.68,0-7.35,0-11.03,0-.1,0-.18.03-.25.1-.21.22-.43.44-.65.66-.15.14-.3.28-.45.42ZM43.46,10.19c2.22-2.22,4.43-4.43,6.65-6.65-1.63-1.49-4.49-1.67-6.39.19-1.87,1.83-1.82,4.72-.26,6.46ZM43.92,10.66c1.31,1.07,2.79,1.45,4.42.96,1.89-.57,3.03-1.88,3.34-3.83.23-1.42-.17-2.7-1.1-3.79-2.23,2.23-4.44,4.44-6.67,6.66ZM52.33,7.56c-.22,2.55-2.3,4.62-4.84,4.84h4.84v-4.84ZM46.55,1.79h-4.84v4.84c.21-2.53,2.28-4.6,4.84-4.84ZM46.55,12.4c-1.17-.12-2.19-.57-3.03-1.31-.45.45-.89.89-1.31,1.31h4.34ZM41.72,7.57v4.37c.44-.44.88-.87,1.32-1.32-.76-.87-1.2-1.89-1.32-3.05ZM52.33,2.27c-.43.43-.87.87-1.32,1.31.75.87,1.2,1.89,1.32,3.05V2.27ZM50.54,3.11c.45-.45.89-.89,1.32-1.32h-4.37c.57.06,1.11.2,1.63.43.52.23,1,.53,1.41.9Z"/>
    </g>
    <g id="oHooWd-2" data-name="oHooWd">
      <path d="M39.93.4v-.19c.2-.26.35-.26.59-.03.3.3.6.59.89.89.09.09.18.13.3.13,3.67,0,7.34,0,11.01,0,.06,0,.13,0,.21,0,0,.08,0,.14,0,.21,0,3.67,0,7.35,0,11.02,0,.12.03.2.12.28.3.3.6.6.9.9.23.23.23.39-.03.59h-.19c-.08-.07-.16-.13-.23-.2-.29-.28-.58-.57-.86-.86-.09-.09-.18-.12-.3-.12-3.67,0-7.33,0-11,0h-.21v-.21c0-3.68,0-7.35,0-11.03,0-.1-.03-.18-.1-.25-.22-.21-.44-.43-.66-.65-.14-.15-.28-.3-.42-.45ZM43.93,3.54c2.22,2.22,4.43,4.43,6.65,6.65,1.49-1.63,1.67-4.49-.19-6.39-1.83-1.87-4.72-1.82-6.46-.26ZM43.45,3.99c-1.07,1.31-1.45,2.79-.96,4.42.57,1.89,1.88,3.03,3.83,3.34,1.42.23,2.7-.17,3.79-1.1-2.23-2.23-4.44-4.44-6.66-6.67ZM46.55,12.4c-2.55-.22-4.62-2.3-4.84-4.84v4.84h4.84ZM52.32,6.62V1.79h-4.84c2.53.21,4.6,2.28,4.84,4.84ZM41.71,6.63c.12-1.17.57-2.19,1.31-3.03-.45-.45-.89-.89-1.31-1.31v4.34ZM46.54,1.79h-4.37c.44.44.87.88,1.32,1.32.87-.76,1.89-1.2,3.05-1.32ZM51.85,12.4c-.43-.43-.87-.87-1.31-1.32-.87.75-1.89,1.2-3.05,1.32h4.36ZM51,10.62c.45.45.89.89,1.32,1.32v-4.37c-.06.57-.2,1.11-.43,1.63-.23.52-.53,1-.9,1.41Z"/>
    </g>
  </g>
  <g>
    <g id="RVfXG6">
      <path d="M34.7.42c-.08.09-.16.18-.25.27-1.32,1.32-2.63,2.64-3.95,3.95-.04.04-.08.07-.13.11,1.25,2.17,2.49,4.32,3.75,6.49h-.19c-3.29,0-6.59,0-9.88,0-.1,0-.18.03-.25.1-.9.9-1.8,1.8-2.7,2.7-.08.08-.16.14-.29.13-.12,0-.21-.04-.24-.15-.03-.09,0-.2.01-.3,0-.05.07-.08.11-.12.75-.75,1.49-1.49,2.24-2.24.03-.03.07-.07.12-.12h-1.93c.04-.07.07-.12.09-.17,2.1-3.64,4.21-7.29,6.31-10.93.02-.04.04-.09.06-.14.02,0,.04,0,.06,0,.02.05.04.09.06.14.51.89,1.03,1.78,1.54,2.67.27.47.54.94.84,1.46.04-.07.07-.12.1-.16,1.3-1.3,2.6-2.61,3.91-3.91.08-.08.19-.13.29-.2,0,0,.02,0,.03,0,.12.03.22.1.28.22v.19ZM22.15,10.64c.07,0,.12,0,.16,0,.41,0,.81,0,1.22,0,.1,0,.16-.03.23-.1,1.92-1.93,3.85-3.85,5.77-5.77.03-.03.07-.07.1-.11-.67-1.16-1.34-2.32-2.02-3.49-1.83,3.16-3.64,6.3-5.47,9.47ZM24.55,10.63h8.53c-1.05-1.82-2.09-3.62-3.12-5.41-1.81,1.81-3.61,3.61-5.4,5.41Z"/>
    </g>
    <g id="RVfXG6-2" data-name="RVfXG6">
      <path d="M30.61,9.66s-.04-.04,0,0c1.3,1.3,2.61,2.6,3.91,3.91.08.08.13.19.2.29,0,0,0,.02,0,.03-.03.12-.1.22-.22.28h-.19c-.09-.08-.18-.16-.27-.25-1.32-1.32-2.64-2.63-3.95-3.95-.04-.04.11-.06,0,0l-6.7-6.7c-.9-.9-1.8-1.8-2.7-2.7-.08-.08-.14-.16-.13-.29,0-.12.04-.21.15-.24.09-.03.2,0,.3.01.05,0,.08.07.12.11.75.75,1.49,1.49,2.24,2.24.03.03.07.07.12.12l7.13,7.14Z"/>
    </g>
  </g>
  <g>
    <g id="dTfErK">
      <path d="M78.71,13.79c.06-.07.12-.15.19-.22.8-.8,1.6-1.6,2.4-2.4.04-.04.08-.06.13-.1-1.24-1.43-1.74-3.07-1.45-4.92.21-1.37.86-2.52,1.89-3.46,2.05-1.86,5.49-2.14,7.9.01.04-.04.08-.07.12-.11.8-.8,1.6-1.6,2.4-2.4.07-.07.15-.12.22-.19.06,0,.13,0,.19,0,.26.19.26.35.03.59-.81.81-1.62,1.62-2.43,2.43-.04.04-.07.07-.11.11,1.12,1.28,1.63,2.77,1.49,4.46-.12,1.43-.69,2.66-1.7,3.67-1.11,1.1-2.45,1.69-4.02,1.73-1.57.04-2.93-.48-4.12-1.51-.04.04-.08.07-.11.11-.81.81-1.62,1.62-2.43,2.43-.23.23-.39.23-.59-.03,0-.06,0-.13,0-.19ZM89.3,3.12c-2.07-1.88-5.55-1.86-7.59.57-1.92,2.29-1.39,5.38.11,6.91,2.49-2.49,4.98-4.98,7.48-7.48ZM82.27,11.06c1.98,1.81,5.35,1.89,7.43-.38,2.07-2.26,1.64-5.45.05-7.09-2.49,2.49-4.98,4.98-7.48,7.48Z"/>
    </g>
    <g id="dTfErK-2" data-name="dTfErK">
      <path d="M79.1,0c.07.06.15.12.22.19.8.8,1.6,1.6,2.4,2.4.04.04.06.08.1.13,1.43-1.24,3.07-1.74,4.92-1.45,1.37.21,2.52.86,3.46,1.89,1.86,2.05,2.14,5.49-.01,7.9.04.04.07.08.11.12.8.8,1.6,1.6,2.4,2.4.07.07.12.15.19.22,0,.06,0,.13,0,.19-.19.26-.35.26-.59.03-.81-.81-1.62-1.62-2.43-2.43-.04-.04-.07-.07-.11-.11-1.28,1.12-2.77,1.63-4.46,1.49-1.43-.12-2.66-.69-3.67-1.7-1.1-1.11-1.69-2.45-1.73-4.02-.04-1.57.48-2.93,1.51-4.12-.04-.04-.07-.08-.11-.11-.81-.81-1.62-1.62-2.43-2.43-.23-.23-.23-.39.03-.59.06,0,.13,0,.19,0ZM89.77,10.61c1.88-2.07,1.86-5.55-.57-7.59-2.29-1.92-5.38-1.39-6.91.11,2.49,2.49,4.98,4.98,7.48,7.48ZM81.83,3.58c-1.81,1.98-1.89,5.35.38,7.43,2.26,2.07,5.45,1.64,7.09.05-2.49-2.49-4.98-4.98-7.48-7.48Z"/>
    </g>
  </g>
  <g id="NaF181">
    <g>
      <path d="M59.32,11.33c.03-.23.06-.45.11-.68.24-1.31.94-2.31,2.06-3.03.81-.53,1.72-.84,2.65-1.07.95-.23,1.91-.36,2.88-.45,1.91-.18,3.82-.18,5.74-.19.05,0,.09,0,.15,0v-2.94c-.06,0-.12,0-.18,0-3.14,0-6.28,0-9.43,0-.06,0-.13,0-.19-.01-.14-.03-.23-.15-.23-.29,0-.14.09-.25.23-.29.05-.01.11-.01.16-.01,3.28,0,6.55,0,9.83,0,.31,0,.41.09.41.4,0,2.96,0,5.92,0,8.89v.17h-.18c-4.61,0-9.22,0-13.83,0-.06,0-.11,0-.17,0,0-.17,0-.33,0-.5ZM72.89,6.51s-.06,0-.08,0c-1.58,0-3.15,0-4.73.11-1.19.07-2.37.2-3.53.45-.86.19-1.7.45-2.47.89-.9.51-1.57,1.21-1.91,2.2-.12.34-.19.69-.22,1.06h12.94v-4.7Z"/>
      <path d="M66.71,9.14c.01-.49.42-.88.91-.87.49.01.88.42.87.91-.01.49-.43.88-.91.87-.49-.01-.88-.42-.87-.91ZM67.88,9.15c0-.16-.14-.29-.29-.29-.15,0-.29.14-.29.29,0,.16.14.29.3.29.16,0,.28-.13.28-.29Z"/>
    </g>
  </g>
</svg>